<svg id="Layer_2" data-name="Layer 2" xmlns="http://www.w3.org/2000/svg" viewBox="0 0 100 100"><defs><style>.cls-1{fill:#fafafa;stroke-width:2px;}.cls-1,.cls-2{stroke:#fafafa;stroke-miterlimit:10;}.cls-2{fill:none;stroke-width:5px;}</style></defs><title>logo</title><path class="cls-1" d="M47.18,35.19,23.11,16.63a.64.64,0,0,0-1,.51v65.6a1,1,0,0,0,1,1h3.11a1,1,0,0,0,1-1V72.54a1,1,0,0,1,1.65-.82L44.17,83.17A1,1,0,0,0,45.59,83l1.66-2.07a1,1,0,0,0-.2-1.48L29.5,66.61a1,1,0,0,1-.26-1.38L47.42,36.56A1,1,0,0,0,47.18,35.19ZM28.89,26.67l12.35,9.26a1,1,0,0,1,.25,1.38L29.14,56.46a1,1,0,0,1-1.9-.56V27.49A1,1,0,0,1,28.89,26.67Z"/><path class="cls-1" d="M53.83,21.34v61a1.48,1.48,0,0,0,1.48,1.48h1.42a1.48,1.48,0,0,0,.89-.3L77.33,68.69a1.48,1.48,0,0,0,0-2.38l-9.41-6.8a1.48,1.48,0,0,0-2,.31l-.28.37a1.48,1.48,0,0,0,.3,2.07l5.36,4a1.48,1.48,0,0,1,0,2.38l-11,8a1.48,1.48,0,0,1-2.35-1.19V29.74a1.48,1.48,0,0,1,2.37-1.18L73.72,38.79a1.48,1.48,0,0,0,2-.25l.88-1.09a1.48,1.48,0,0,0-.25-2.09L56.21,19.78A1.48,1.48,0,0,0,53.83,21Z"/><rect class="cls-2" x="3.13" y="3.26" width="93.74" height="93.74" rx="4" ry="4"/></svg>